<?xml version="1.0" standalone="no"?>
<!DOCTYPE svg PUBLIC "-//W3C//DTD SVG 20010904//EN"
 "http://www.w3.org/TR/2001/REC-SVG-20010904/DTD/svg10.dtd">
<svg version="1.0" xmlns="http://www.w3.org/2000/svg"
 width="1350.000000pt" height="1350.000000pt" viewBox="0 0 1350.000000 1350.000000"
 preserveAspectRatio="xMidYMid meet">
<metadata>
Created by potrace 1.10, written by Peter Selinger 2001-2011
</metadata>
<g transform="translate(0.000000,1350.000000) scale(0.100000,-0.100000)"
fill="#000000" stroke="none">
<path d="M1240 8349 c-113 -19 -155 -41 -213 -110 -71 -82 -81 -111 -80 -234
0 -129 17 -177 86 -248 77 -79 144 -107 257 -107 209 0 350 143 350 355 0 176
-103 304 -273 339 -42 9 -77 15 -79 15 -2 -1 -23 -5 -48 -10z"/>
<path d="M9250 8213 c-39 -14 -40 -22 -40 -494 0 -252 -3 -464 -6 -473 -9 -24
-21 -20 -55 18 -34 39 -116 95 -169 115 -182 69 -461 48 -621 -46 -148 -88
-282 -281 -329 -473 -5 -19 -13 -53 -19 -75 -36 -146 -45 -253 -45 -545 -1
-304 6 -382 51 -555 14 -57 22 -81 59 -177 79 -206 221 -364 384 -426 92 -36
259 -47 395 -28 85 12 233 86 286 143 53 58 69 52 69 -25 0 -95 -11 -92 316
-92 158 0 285 4 294 10 22 14 28 3075 6 3105 -14 19 -29 20 -288 22 -150 1
-280 -1 -288 -4z m-277 -1349 c41 -5 57 -15 100 -58 99 -98 127 -226 127 -587
0 -250 -10 -340 -52 -449 -54 -141 -171 -210 -304 -181 -71 16 -105 36 -145
87 -41 52 -57 91 -81 199 -16 77 -19 129 -19 355 -1 273 7 338 53 460 18 49
73 120 111 144 34 22 121 46 147 40 8 -1 37 -6 63 -10z"/>
<path d="M2700 7405 c-175 -25 -317 -84 -451 -186 -78 -59 -167 -166 -203
-244 -11 -22 -23 -48 -27 -57 -14 -28 -40 -168 -37 -195 2 -14 10 -29 18 -34
16 -8 449 -40 541 -39 62 0 76 10 99 69 45 113 164 168 320 148 150 -19 240
-138 240 -318 0 -45 -5 -72 -14 -82 -12 -11 -71 -15 -303 -19 -294 -6 -336
-11 -483 -55 -194 -59 -325 -164 -404 -323 -72 -143 -91 -429 -40 -600 24 -80
72 -173 113 -219 41 -45 167 -131 193 -131 9 0 19 -4 22 -9 20 -32 314 -79
424 -68 205 22 303 63 425 181 26 26 52 44 57 41 6 -4 10 -42 10 -85 0 -68 3
-81 19 -90 12 -6 126 -10 299 -10 257 0 280 1 295 18 16 17 17 89 17 831 0
865 0 864 -49 986 -49 125 -202 304 -301 354 -25 12 -63 32 -85 44 -165 90
-449 127 -695 92z m478 -1371 c20 -14 22 -23 22 -122 0 -147 -19 -210 -85
-277 -74 -76 -168 -115 -276 -115 -174 0 -269 86 -269 245 0 86 21 141 74 188
78 71 165 92 396 95 90 2 120 -1 138 -14z"/>
<path d="M6480 7405 c-114 -18 -218 -55 -345 -123 -13 -7 -54 -40 -92 -74 -59
-54 -82 -78 -147 -159 -61 -75 -128 -248 -146 -379 -30 -221 -32 -255 -27
-470 10 -425 56 -616 194 -815 129 -187 345 -304 618 -335 366 -41 641 41 849
255 119 121 238 368 194 401 -12 10 -73 24 -241 58 -42 9 -110 23 -150 32 -39
9 -90 14 -112 12 -37 -3 -43 -8 -87 -72 -57 -85 -117 -127 -214 -150 -67 -17
-75 -17 -140 -1 -38 10 -82 25 -99 34 -38 20 -125 109 -125 128 0 7 -6 24 -14
36 -16 25 -42 210 -32 226 5 8 186 11 614 11 334 0 612 4 618 8 28 19 34 55
34 224 -1 280 -22 450 -77 622 -25 79 -123 217 -218 309 -194 188 -526 274
-855 222z m256 -537 c148 -29 233 -142 248 -330 11 -139 37 -128 -307 -128
-215 0 -296 3 -305 12 -25 25 -6 200 30 278 23 50 77 111 124 140 17 11 55 24
85 29 30 5 57 9 60 10 3 0 32 -4 65 -11z"/>
<path d="M5185 7401 c-77 -16 -160 -68 -235 -148 -38 -41 -70 -82 -70 -90 0
-8 -7 -13 -17 -11 -15 3 -18 17 -21 99 -4 142 14 133 -302 137 -254 2 -304 -3
-322 -31 -4 -7 -8 -515 -8 -1129 0 -1002 2 -1118 16 -1132 13 -14 54 -16 298
-16 258 0 284 2 299 18 14 16 16 90 19 697 3 658 4 681 23 720 72 144 159 210
307 235 72 12 115 11 230 -6 l47 -6 10 38 c6 22 13 59 16 84 5 42 17 106 45
255 22 119 30 195 20 219 -16 42 -89 67 -210 71 -58 2 -123 0 -145 -4z"/>
<path d="M1008 7374 l-28 -15 0 -1182 c0 -1126 -1 -1185 -19 -1248 -26 -91
-44 -122 -93 -161 -58 -46 -127 -67 -228 -69 -83 -2 -118 -11 -132 -33 -4 -6
-8 -115 -8 -243 0 -197 2 -234 16 -247 13 -13 41 -16 157 -16 78 0 171 5 207
10 36 6 94 15 130 20 97 14 163 35 257 80 159 77 255 204 296 390 40 185 40
191 44 1440 2 668 1 1225 -2 1238 -11 45 -50 51 -321 51 -198 0 -255 -3 -276
-15z"/>
</g>
</svg>
