<?xml version="1.0" standalone="no"?>
<!DOCTYPE svg PUBLIC "-//W3C//DTD SVG 20010904//EN"
 "http://www.w3.org/TR/2001/REC-SVG-20010904/DTD/svg10.dtd">
<svg version="1.0" xmlns="http://www.w3.org/2000/svg"
 width="1350.000000pt" height="501.000000pt" viewBox="0 0 1350.000000 501.000000"
 preserveAspectRatio="xMidYMid meet">
<metadata>
Created by potrace 1.10, written by Peter Selinger 2001-2011
</metadata>
<g transform="translate(0.000000,501.000000) scale(0.100000,-0.100000)"
fill="#000000" stroke="none">
<path d="M1753 4100 l-22 -9 -4 -1283 c-2 -1021 -6 -1292 -16 -1328 -46 -158
-142 -257 -289 -297 -229 -63 -440 42 -513 255 -16 48 -19 85 -19 278 0 221 0
223 -24 251 l-24 28 -312 0 -312 0 -19 -24 c-17 -21 -19 -41 -19 -215 1 -315
29 -474 117 -651 72 -145 209 -292 349 -375 46 -27 89 -50 93 -50 5 0 22 -6
38 -14 48 -25 100 -46 113 -46 7 0 33 -6 59 -14 193 -61 506 -61 702 0 26 8
53 14 61 14 18 0 166 64 227 98 224 124 383 338 458 617 15 54 17 203 20 1408
l3 1347 -26 10 c-32 12 -611 12 -641 0z"/>
<path d="M3643 4093 c-19 -17 -30 -49 -67 -193 -10 -36 -23 -87 -31 -115 -12
-46 -26 -97 -61 -230 -54 -208 -73 -278 -89 -335 -7 -25 -20 -73 -29 -107 -36
-141 -55 -211 -91 -348 -8 -27 -20 -75 -28 -105 -43 -163 -67 -256 -90 -340
-9 -30 -23 -84 -33 -120 -9 -36 -23 -90 -31 -120 -8 -30 -21 -77 -28 -105 -7
-27 -20 -75 -28 -105 -9 -30 -23 -84 -32 -120 -28 -110 -69 -266 -91 -347 -26
-95 -43 -157 -60 -223 -9 -36 -22 -85 -29 -110 -7 -25 -20 -74 -29 -110 -22
-85 -40 -152 -60 -221 -19 -66 -20 -111 -4 -127 9 -9 97 -12 334 -12 292 0
324 2 343 18 24 19 37 65 91 302 14 65 32 135 46 188 l15 52 485 0 484 0 9
-22 c5 -13 16 -59 26 -103 9 -44 23 -101 31 -127 8 -26 14 -56 14 -66 0 -11 7
-42 15 -68 8 -27 17 -66 20 -88 4 -21 17 -49 30 -62 l24 -24 329 0 c311 0 330
1 346 19 17 18 17 23 1 78 -20 71 -38 137 -60 223 -35 132 -46 176 -60 225 -7
28 -21 79 -30 115 -9 36 -22 88 -30 115 -7 28 -21 79 -30 115 -10 36 -23 85
-30 110 -7 25 -20 74 -29 110 -10 36 -23 88 -31 115 -13 48 -31 117 -62 235
-8 30 -20 78 -28 105 -13 49 -34 128 -62 235 -8 30 -20 78 -28 105 -13 49 -34
128 -62 235 -8 30 -20 78 -28 105 -7 28 -21 79 -31 115 -9 36 -23 88 -30 115
-7 28 -20 77 -29 110 -9 33 -22 83 -30 110 -7 28 -21 79 -30 115 -9 36 -23 88
-30 115 -8 28 -21 79 -31 115 -9 36 -22 85 -29 110 -7 25 -20 74 -29 110 -9
36 -23 86 -31 111 -8 26 -15 56 -15 68 0 12 -11 33 -25 46 l-24 25 -389 0
c-357 0 -391 -1 -409 -17z m411 -909 c9 -8 16 -28 16 -44 0 -16 5 -41 11 -57
6 -15 14 -48 19 -73 4 -25 13 -67 20 -95 26 -108 39 -163 55 -230 9 -38 22
-95 30 -125 8 -30 21 -89 31 -130 9 -41 23 -95 30 -119 8 -25 14 -54 14 -66 0
-12 6 -41 14 -66 7 -24 21 -80 31 -124 9 -44 22 -93 27 -110 5 -16 13 -50 17
-75 5 -25 15 -67 22 -93 22 -79 29 -77 -346 -77 -257 0 -325 3 -340 14 -20 15
-19 25 21 193 8 35 21 92 29 128 9 36 22 95 31 132 19 82 38 166 58 253 8 36
20 88 26 115 7 28 16 68 20 90 4 22 13 63 20 90 6 28 18 75 25 105 7 30 19 78
25 105 7 28 16 68 20 90 4 22 12 60 19 85 6 25 13 57 16 73 6 31 17 34 39 11z"/>
<path d="M5781 4089 l-21 -23 0 -1711 c0 -1532 2 -1713 16 -1733 15 -22 16
-22 333 -22 310 0 318 0 337 21 18 20 19 49 22 717 2 488 6 699 13 709 9 10
49 13 159 13 82 0 156 -3 165 -6 16 -6 55 -73 55 -95 0 -6 6 -25 14 -42 8 -18
16 -41 19 -52 3 -11 15 -45 27 -75 32 -84 50 -131 64 -175 8 -22 28 -78 46
-125 17 -47 35 -96 40 -110 5 -14 18 -50 30 -80 12 -30 26 -71 32 -90 5 -19
14 -39 18 -45 4 -5 10 -21 13 -35 3 -14 15 -50 26 -80 35 -88 50 -130 76 -205
23 -70 27 -81 61 -165 33 -83 17 -80 385 -80 240 0 328 3 337 12 17 17 15 70
-4 115 -33 78 -42 99 -57 138 -8 22 -29 75 -46 118 -17 42 -44 111 -61 152
-16 41 -44 110 -61 153 -17 42 -38 95 -46 117 -8 22 -21 54 -28 70 -7 17 -19
48 -28 70 -21 56 -56 146 -66 170 -5 11 -16 40 -26 65 -9 25 -23 59 -30 75 -7
17 -19 48 -28 70 -8 22 -29 75 -47 117 -18 42 -29 81 -26 86 6 9 123 82 132
82 14 0 125 94 169 143 148 164 216 327 239 572 13 136 5 303 -20 410 -20 88
-54 194 -65 201 -5 3 -9 12 -9 19 0 27 -91 168 -152 237 -84 95 -160 152 -283
211 -217 105 -164 100 -986 104 l-717 4 -21 -22z m1285 -607 c86 -30 175 -106
222 -190 51 -91 69 -286 36 -388 -38 -114 -108 -214 -178 -251 -93 -50 -115
-53 -403 -53 l-273 0 0 450 0 450 273 0 c235 0 280 -2 323 -18z"/>
<path d="M8503 4100 l-23 -9 0 -1732 c0 -1638 1 -1733 18 -1745 14 -11 206
-13 1043 -14 l1026 0 19 21 c18 20 19 39 19 280 0 256 0 259 -23 281 l-23 23
-681 3 c-478 2 -685 6 -695 13 -18 16 -19 809 -1 827 9 9 117 12 424 12 424 0
464 3 484 40 6 11 10 127 10 274 0 250 0 256 -22 276 -21 19 -33 20 -443 20
-364 0 -424 2 -443 16 l-22 15 0 380 c0 243 4 387 10 400 10 18 29 19 690 19
l679 0 28 24 28 24 3 238 c2 131 0 249 -3 261 -3 13 -14 32 -25 43 -20 20 -37
20 -1037 19 -582 0 -1028 -4 -1040 -9z"/>
<path d="M11053 4095 l-23 -16 0 -1723 c0 -1656 1 -1724 18 -1739 17 -15 72
-17 578 -17 557 0 758 8 859 36 94 25 183 53 202 62 10 5 50 24 88 42 129 62
279 191 353 305 63 95 99 179 135 310 22 80 22 84 22 1000 0 855 -1 925 -18
990 -49 190 -145 356 -274 476 -57 52 -163 129 -179 129 -4 0 -15 6 -23 13
-18 15 -144 69 -206 88 -169 52 -157 51 -855 56 -592 4 -657 3 -677 -12z
m1257 -612 c25 -9 52 -22 61 -30 8 -7 20 -13 25 -13 19 0 103 -96 129 -147 14
-29 35 -85 45 -125 18 -69 20 -113 20 -803 0 -675 -2 -735 -19 -800 -41 -159
-116 -262 -229 -316 l-67 -33 -258 -4 c-195 -3 -261 -1 -272 8 -13 11 -15 151
-15 1140 0 619 3 1130 7 1133 3 4 124 7 267 7 218 0 268 -3 306 -17z"/>
</g>
</svg>
