<?xml version="1.0" standalone="no"?>
<!DOCTYPE svg PUBLIC "-//W3C//DTD SVG 20010904//EN"
 "http://www.w3.org/TR/2001/REC-SVG-20010904/DTD/svg10.dtd">
<svg version="1.0" xmlns="http://www.w3.org/2000/svg"
 width="1350.000000pt" height="525.000000pt" viewBox="0 0 1350.000000 525.000000"
 preserveAspectRatio="xMidYMid meet">
<metadata>
Created by potrace 1.10, written by Peter Selinger 2001-2011
</metadata>
<g transform="translate(0.000000,525.000000) scale(0.100000,-0.100000)"
fill="#000000" stroke="none">
<path d="M50 2670 c0 -852 3 -1550 8 -1550 210 -3 615 1 622 5 6 4 10 209 10
580 0 558 1 575 19 585 13 6 151 10 379 10 l360 0 34 -52 c19 -29 52 -81 74
-116 21 -35 47 -75 56 -90 10 -15 22 -36 28 -47 6 -11 19 -33 30 -50 11 -16
24 -39 30 -50 6 -11 18 -32 28 -47 9 -15 51 -82 92 -148 41 -67 83 -134 92
-148 10 -15 22 -36 28 -47 6 -11 19 -33 30 -50 11 -16 24 -39 30 -50 6 -11 18
-32 28 -47 9 -15 43 -70 75 -122 32 -52 64 -100 72 -106 13 -11 702 -16 713
-5 7 7 -16 51 -49 95 -14 19 -29 42 -33 50 -10 22 -23 43 -101 160 -39 58 -72
109 -74 115 -2 5 -24 38 -48 73 -23 35 -43 65 -43 68 0 3 -9 17 -19 32 -30 42
-156 236 -160 247 -2 5 -24 38 -48 73 -23 35 -43 65 -43 68 0 2 -20 33 -45 70
-25 36 -45 67 -45 69 0 3 -22 38 -50 78 -27 41 -50 78 -50 84 0 12 60 43 84
43 22 0 140 58 206 102 112 73 230 209 287 328 74 155 93 240 93 415 0 139
-12 217 -51 337 -59 182 -220 358 -409 448 -91 44 -152 67 -210 80 -19 4 -55
12 -80 18 -152 36 -156 36 -1057 40 l-893 3 0 -1551z m1688 1024 c63 -15 86
-23 171 -63 18 -9 59 -44 90 -78 74 -81 95 -145 95 -292 0 -79 -5 -119 -19
-156 -26 -71 -81 -150 -132 -193 -55 -46 -168 -92 -253 -103 -107 -14 -974
-11 -988 3 -9 9 -12 122 -12 448 0 240 3 440 7 443 3 4 224 7 490 7 408 0 494
-3 551 -16z"/>
<path d="M3315 4214 c-12 -5 -9 -3074 3 -3086 5 -5 148 -7 318 -6 l309 3 0
1545 0 1545 -310 2 c-170 1 -314 0 -320 -3z"/>
<path d="M4298 4215 c-3 -4 3 -30 14 -58 11 -29 23 -63 28 -77 10 -29 30 -82
60 -160 12 -30 25 -66 30 -80 5 -14 18 -50 30 -80 12 -30 25 -70 30 -88 4 -18
12 -38 18 -45 5 -7 12 -23 15 -37 3 -14 15 -50 26 -80 28 -70 50 -128 61 -160
5 -14 18 -50 30 -80 12 -30 25 -66 30 -80 5 -14 18 -50 30 -80 12 -30 26 -71
32 -90 5 -19 14 -39 19 -45 5 -5 9 -18 9 -30 0 -12 7 -30 15 -41 8 -10 15 -28
15 -39 0 -11 6 -29 14 -40 7 -11 16 -31 19 -45 3 -14 15 -50 27 -80 12 -30 25
-66 30 -80 5 -14 18 -50 30 -80 12 -30 25 -66 30 -80 5 -14 18 -50 30 -80 12
-30 24 -66 27 -80 3 -14 12 -34 19 -45 8 -11 14 -29 14 -40 0 -11 6 -29 14
-40 7 -11 16 -31 19 -45 3 -14 15 -50 27 -80 12 -30 25 -66 30 -80 5 -14 18
-50 30 -80 12 -30 25 -66 30 -80 5 -14 18 -50 30 -80 12 -30 25 -66 30 -80 5
-14 18 -50 30 -80 12 -30 25 -70 30 -89 5 -18 13 -38 19 -44 6 -6 11 -20 11
-32 0 -11 6 -29 14 -40 7 -11 16 -31 19 -45 3 -14 15 -50 27 -80 12 -30 24
-65 27 -77 3 -12 11 -27 17 -32 18 -15 643 -16 661 -1 7 6 15 21 18 33 3 12
15 47 27 77 12 30 25 66 30 80 5 14 18 50 30 80 47 122 52 136 57 160 3 14 12
34 19 45 8 11 14 29 14 40 0 11 6 29 14 40 7 11 16 31 19 45 3 14 15 50 27 80
12 30 25 66 30 80 5 14 18 50 30 80 47 122 52 136 57 160 3 14 9 30 13 35 4 6
13 26 18 45 6 19 20 60 32 90 12 30 25 66 30 80 5 14 18 50 30 80 47 122 52
136 57 160 3 14 10 30 15 37 6 7 14 27 18 45 8 32 16 53 60 168 12 30 25 66
30 80 5 14 18 50 30 80 12 30 24 66 27 80 3 14 12 34 19 45 8 11 14 29 14 40
0 12 5 26 11 32 6 6 14 26 19 44 5 19 18 59 30 89 28 74 49 130 60 160 5 14
18 50 30 80 12 30 24 66 27 80 3 14 10 30 15 37 6 7 14 27 18 45 5 18 18 58
30 88 12 30 25 66 30 80 5 14 18 50 30 80 64 167 72 192 62 202 -5 5 -154 7
-331 6 l-323 -3 -15 -40 c-8 -22 -18 -53 -22 -70 -5 -16 -13 -41 -19 -55 -5
-14 -18 -52 -27 -85 -10 -33 -23 -76 -30 -95 -7 -19 -27 -82 -45 -140 -18 -58
-38 -121 -45 -140 -7 -19 -21 -62 -30 -95 -10 -33 -24 -75 -31 -93 -8 -18 -14
-39 -14 -47 0 -8 -6 -29 -14 -47 -7 -18 -21 -60 -31 -93 -9 -33 -23 -76 -30
-95 -7 -19 -21 -62 -30 -95 -10 -33 -23 -76 -30 -95 -7 -19 -27 -82 -45 -140
-18 -58 -38 -121 -45 -140 -7 -19 -21 -62 -30 -95 -10 -33 -23 -76 -30 -95 -7
-19 -27 -82 -45 -140 -18 -58 -38 -123 -45 -145 -18 -58 -67 -230 -90 -320
-33 -124 -51 -176 -60 -176 -5 0 -11 8 -13 18 -3 18 -18 76 -48 183 -9 30 -22
78 -29 105 -29 108 -48 171 -58 195 -5 14 -13 41 -17 60 -5 19 -14 51 -20 70
-31 88 -38 109 -55 165 -9 33 -23 76 -30 95 -32 89 -39 113 -75 235 -4 17 -14
46 -21 65 -6 19 -17 51 -24 70 -7 19 -20 62 -30 95 -9 33 -23 76 -30 95 -7 19
-27 82 -45 140 -18 58 -38 121 -45 140 -7 19 -20 62 -30 95 -9 33 -23 76 -30
95 -28 79 -37 106 -45 135 -35 120 -40 135 -75 235 -7 19 -20 62 -30 95 -9 33
-26 80 -35 105 l-19 45 -328 3 c-181 1 -332 0 -335 -3z"/>
<path d="M7580 4213 c-2 -240 1 -3087 3 -3089 6 -6 2498 -5 2508 1 5 4 9 109
9 246 l0 239 -917 0 c-505 0 -928 3 -940 6 l-23 6 0 399 c0 307 3 400 13 406
6 4 379 10 827 13 l815 5 0 240 0 240 -825 5 c-454 3 -826 6 -827 8 -2 1 -3
175 -3 386 l0 384 23 6 c12 3 409 6 882 6 473 0 866 0 873 0 10 0 12 53 10
248 l-3 247 -1212 3 c-667 1 -1213 -1 -1213 -5z"/>
<path d="M10585 4208 c-3 -7 -4 -704 -3 -1548 l3 -1535 323 -3 c177 -1 323 -1
324 0 2 2 5 266 8 588 l5 585 363 3 c244 1 369 -1 383 -8 11 -6 24 -21 30 -33
5 -12 17 -34 27 -49 9 -15 51 -81 92 -148 41 -67 83 -133 92 -148 10 -15 22
-36 28 -47 6 -11 19 -33 30 -50 11 -16 24 -39 30 -50 6 -11 19 -33 30 -50 10
-16 25 -40 32 -52 18 -30 159 -258 180 -291 10 -15 22 -36 28 -47 6 -11 18
-32 28 -47 9 -14 30 -48 46 -75 54 -91 15 -83 413 -83 303 0 353 2 353 15 0 8
-34 64 -75 126 -41 61 -75 113 -75 115 0 2 -20 33 -45 70 -25 36 -45 67 -45
70 0 2 -20 33 -45 70 -25 36 -45 67 -45 70 0 2 -20 33 -45 70 -25 36 -45 67
-45 70 0 2 -20 33 -45 70 -25 36 -45 67 -45 69 0 2 -20 33 -45 69 -25 37 -45
68 -45 71 0 3 -20 34 -45 71 -25 36 -45 67 -45 69 0 2 -19 32 -42 67 -83 123
-85 128 -63 144 10 8 35 17 54 20 56 10 206 88 276 144 60 48 155 148 164 173
2 7 14 26 26 42 26 35 95 179 95 199 0 7 8 31 17 52 14 33 17 72 17 239 0 178
-2 208 -22 270 -27 86 -48 134 -100 231 -32 59 -179 197 -267 251 -41 25 -151
76 -180 84 -16 4 -43 12 -60 18 -43 14 -139 37 -220 52 -103 19 -1843 25
-1850 7z m1702 -517 c108 -26 175 -59 234 -113 123 -112 155 -356 70 -531 -21
-42 -100 -133 -142 -162 -19 -13 -62 -34 -124 -58 -47 -19 -82 -20 -559 -24
-299 -3 -512 -1 -518 5 -6 6 -12 602 -8 890 0 9 104 12 484 12 443 0 492 -2
563 -19z"/>
</g>
</svg>
