<?xml version="1.0" standalone="no"?>
<!DOCTYPE svg PUBLIC "-//W3C//DTD SVG 20010904//EN"
 "http://www.w3.org/TR/2001/REC-SVG-20010904/DTD/svg10.dtd">
<svg version="1.0" xmlns="http://www.w3.org/2000/svg"
 width="1350.000000pt" height="1350.000000pt" viewBox="0 0 1350.000000 1350.000000"
 preserveAspectRatio="xMidYMid meet">
<metadata>
Created by potrace 1.10, written by Peter Selinger 2001-2011
</metadata>
<g transform="translate(0.000000,1350.000000) scale(0.100000,-0.100000)"
fill="#000000" stroke="none">
<path d="M2850 8353 c-149 -22 -245 -98 -295 -235 -27 -73 -18 -207 18 -278
64 -125 170 -190 311 -190 86 0 137 14 204 58 57 37 87 72 123 142 31 63 32
232 1 301 -27 57 -92 133 -135 154 -64 33 -173 56 -227 48z"/>
<path d="M6439 7415 c-3 -2 -36 -9 -74 -14 -321 -45 -581 -265 -683 -577 -52
-161 -57 -208 -57 -574 1 -356 9 -454 51 -575 8 -23 14 -46 14 -53 0 -18 67
-158 104 -215 44 -68 147 -171 215 -215 67 -43 195 -102 222 -102 11 0 30 -5
41 -11 11 -6 71 -17 132 -25 323 -40 578 14 777 164 127 97 218 223 294 408
19 46 13 80 -13 88 -49 13 -157 36 -232 51 -47 9 -113 22 -147 30 -125 30
-160 21 -197 -51 -37 -74 -119 -133 -218 -158 -62 -15 -71 -15 -140 0 -92 21
-159 64 -202 129 -42 64 -68 162 -64 240 l3 60 611 5 c498 4 614 8 627 19 26
21 24 461 -3 623 -10 65 -24 126 -29 137 -6 11 -11 27 -11 36 0 27 -69 156
-120 225 -150 201 -328 303 -600 345 -89 13 -291 21 -301 10z m288 -582 c42
-24 82 -69 115 -128 25 -47 54 -239 40 -270 l-12 -25 -302 2 -303 3 -3 85 c-6
160 52 282 163 344 73 40 225 34 302 -11z"/>
<path d="M1940 7401 c-48 -10 -137 -56 -185 -96 -22 -18 -60 -60 -85 -94 -24
-33 -50 -61 -56 -61 -8 0 -13 32 -16 100 -5 145 19 135 -318 135 -255 0 -281
-2 -297 -18 -17 -17 -18 -77 -20 -1125 -2 -880 0 -1112 10 -1132 l13 -25 285
-3 c235 -2 288 0 304 12 19 14 20 33 25 703 l5 688 34 63 c39 71 113 143 175
170 67 30 176 46 253 38 37 -5 84 -9 103 -9 l35 -2 17 75 c9 41 24 120 33 175
9 55 23 132 31 170 15 75 18 163 6 181 -4 5 -27 20 -52 33 -36 19 -64 23 -155
26 -60 2 -126 1 -145 -4z"/>
<path d="M8850 7401 c-102 -24 -201 -94 -275 -195 -27 -36 -52 -66 -57 -66 -4
0 -8 45 -8 100 0 155 3 153 -362 148 -203 -3 -240 -5 -254 -19 -14 -15 -16
-115 -15 -1140 1 -1045 2 -1125 18 -1136 12 -10 88 -13 295 -13 265 0 279 1
298 20 20 20 20 33 20 690 0 719 -3 670 49 779 21 44 111 126 164 149 93 41
190 48 344 26 40 -6 43 -4 53 22 6 15 15 58 20 94 9 66 20 126 45 255 23 115
29 213 15 230 -31 37 -102 58 -210 61 -58 2 -121 -1 -140 -5z"/>
<path d="M2625 7383 c-11 -3 -28 -12 -37 -21 -17 -14 -18 -81 -18 -1133 l0
-1118 22 -15 c19 -14 65 -16 296 -16 169 0 281 4 293 10 19 10 19 34 19 1140
l0 1129 -30 16 c-24 12 -73 15 -277 14 -136 -1 -257 -4 -268 -6z"/>
<path d="M3526 7371 c-16 -17 -16 -23 4 -92 12 -41 25 -90 30 -109 4 -19 13
-48 18 -65 6 -16 17 -55 26 -85 8 -30 22 -80 31 -110 8 -30 22 -80 31 -110 8
-30 21 -75 28 -100 7 -25 21 -71 30 -102 9 -32 23 -84 32 -115 36 -124 44
-155 58 -200 7 -27 21 -77 31 -113 9 -36 23 -83 29 -105 13 -39 29 -96 59
-205 8 -30 23 -82 33 -115 18 -64 32 -114 60 -210 9 -33 23 -80 30 -105 7 -25
20 -72 30 -105 9 -33 23 -80 30 -105 7 -25 16 -57 19 -73 3 -15 14 -36 25 -47
19 -19 35 -20 340 -20 292 0 322 2 338 18 16 16 25 39 58 157 7 28 21 75 29
105 9 30 22 78 30 105 14 51 38 134 61 215 7 25 20 71 28 102 19 68 44 155 62
218 7 25 20 71 28 102 19 68 44 155 62 218 7 25 20 71 28 102 37 131 46 166
61 218 22 77 43 151 60 212 8 29 22 78 30 108 9 30 22 78 30 105 37 134 49
173 62 212 19 57 14 85 -17 93 -14 4 -156 10 -316 14 l-291 7 -27 -31 c-14
-17 -26 -43 -26 -58 0 -14 -6 -51 -14 -81 -8 -31 -21 -92 -30 -136 -9 -44 -22
-100 -28 -125 -6 -25 -14 -68 -18 -97 -5 -28 -11 -57 -15 -63 -4 -6 -10 -35
-15 -63 -4 -29 -12 -72 -18 -97 -10 -43 -16 -72 -57 -265 -9 -44 -23 -105 -30
-135 -8 -30 -17 -71 -20 -90 -13 -84 -32 -154 -42 -157 -13 -5 -32 56 -58 182
-34 158 -47 221 -60 275 -7 30 -21 91 -30 135 -16 79 -34 161 -60 280 -8 33
-21 96 -30 140 -9 44 -23 105 -30 135 -7 30 -21 91 -31 135 -26 121 -5 115
-360 115 -282 0 -302 -1 -318 -19z"/>
</g>
</svg>
